<svg id="svg" version="1.1" xmlns="http://www.w3.org/2000/svg" xmlns:xlink="http://www.w3.org/1999/xlink" width="400" height="400" viewBox="0, 0, 400,400"><g id="svgg"><path id="path0" d="M133.800 57.803 C 131.380 58.100,127.870 58.617,126.000 58.952 C 124.130 59.288,121.880 59.686,121.000 59.837 C 120.120 59.989,118.950 60.336,118.400 60.608 C 117.850 60.881,116.770 61.236,116.000 61.397 C 115.230 61.559,113.610 62.140,112.400 62.690 C 111.190 63.240,109.390 64.043,108.400 64.476 C 105.748 65.634,104.493 66.327,101.546 68.259 C 100.087 69.217,98.775 70.000,98.631 70.000 C 98.488 70.000,97.326 71.035,96.049 72.300 C 90.815 77.484,89.164 81.446,90.588 85.400 C 90.905 86.280,91.175 88.260,91.188 89.800 C 91.212 92.600,91.853 95.213,92.733 96.093 C 92.990 96.350,93.200 96.756,93.200 96.995 C 93.200 97.234,93.733 98.053,94.384 98.815 C 95.035 99.577,95.575 100.386,95.584 100.613 C 95.603 101.100,99.953 105.471,101.083 106.138 C 101.513 106.392,102.480 107.004,103.232 107.499 C 105.010 108.666,109.135 108.788,110.091 107.700 C 112.198 105.303,112.400 104.163,112.400 94.636 C 112.400 85.136,112.758 82.124,114.025 80.978 C 114.451 80.592,114.800 80.059,114.800 79.794 C 114.800 79.240,116.995 77.005,118.246 76.286 C 121.042 74.679,122.435 74.000,122.935 74.000 C 123.247 74.000,123.718 73.740,123.982 73.422 C 124.246 73.104,125.483 72.648,126.731 72.408 C 127.979 72.169,129.342 71.780,129.761 71.545 C 130.910 70.899,149.124 70.618,152.800 71.190 C 154.450 71.446,158.860 71.808,162.600 71.993 C 169.259 72.323,170.585 72.577,174.308 74.234 C 176.980 75.423,180.187 76.922,180.800 77.267 C 181.130 77.454,181.850 77.804,182.400 78.046 C 182.950 78.288,183.670 78.650,184.000 78.851 C 184.330 79.052,185.410 79.623,186.400 80.120 C 192.181 83.019,197.768 86.874,198.973 88.794 C 199.178 89.121,200.798 90.925,202.573 92.802 C 206.445 96.899,206.944 98.189,206.685 103.451 C 206.493 107.345,205.314 113.229,204.411 114.800 C 204.095 115.350,203.883 116.105,203.940 116.478 C 203.996 116.851,203.769 117.686,203.434 118.333 C 203.100 118.981,202.285 121.105,201.624 123.055 C 199.581 129.085,199.156 130.180,198.616 130.800 C 198.329 131.130,197.968 131.816,197.812 132.325 C 197.657 132.834,196.646 134.418,195.565 135.846 C 194.484 137.274,193.600 138.582,193.600 138.753 C 193.600 139.304,189.150 144.000,188.628 144.000 C 188.350 144.000,187.510 144.591,186.761 145.313 C 185.343 146.681,182.932 148.000,181.851 148.000 C 181.506 148.000,180.273 148.420,179.112 148.933 C 177.950 149.446,176.190 150.090,175.200 150.364 C 173.241 150.905,167.576 153.692,166.046 154.867 C 165.521 155.270,164.876 155.600,164.612 155.600 C 162.993 155.600,155.553 163.406,153.965 166.771 C 152.992 168.833,152.398 171.551,152.122 175.200 C 152.015 176.630,151.734 178.033,151.500 178.317 C 151.196 178.685,151.207 178.967,151.537 179.297 C 151.841 179.601,152.000 181.590,152.000 185.106 C 152.000 188.047,152.161 190.756,152.357 191.126 C 152.553 191.497,152.929 200.800,153.193 211.800 C 153.456 222.800,153.851 233.780,154.070 236.200 C 154.953 245.957,154.927 255.504,154.017 255.991 C 152.981 256.545,152.975 257.048,154.000 257.316 C 154.721 257.505,154.803 257.873,154.826 261.063 C 154.917 273.456,155.462 281.483,156.293 282.645 C 158.407 285.601,162.040 286.461,166.928 285.164 C 169.579 284.461,169.834 283.785,170.168 276.600 C 170.322 273.300,170.729 267.000,171.074 262.600 C 172.671 242.231,171.583 195.568,169.336 188.049 C 167.083 180.507,172.843 169.606,181.655 164.737 C 182.315 164.372,183.158 163.814,183.528 163.496 C 184.842 162.367,190.764 158.400,191.135 158.400 C 191.343 158.400,192.347 157.711,193.366 156.868 C 194.386 156.026,196.385 154.733,197.809 153.996 C 199.232 153.258,200.789 152.237,201.268 151.727 C 201.747 151.217,202.360 150.800,202.630 150.800 C 202.899 150.800,204.056 150.170,205.200 149.400 C 206.344 148.630,207.347 148.000,207.429 148.000 C 207.971 148.000,216.392 140.793,219.123 137.992 C 227.385 129.518,231.652 117.124,229.655 107.400 C 229.429 106.300,228.980 103.870,228.658 102.000 C 227.614 95.945,224.730 90.314,219.640 84.394 C 215.338 79.390,208.065 73.528,203.842 71.660 C 202.843 71.218,201.256 70.329,200.313 69.683 C 197.388 67.678,189.389 63.997,183.600 61.990 C 182.830 61.723,181.300 61.170,180.200 60.762 C 179.100 60.353,176.940 59.724,175.400 59.363 C 173.860 59.002,171.700 58.430,170.600 58.091 C 167.797 57.227,140.254 57.011,133.800 57.803 M166.718 58.928 C 167.883 59.024,168.948 59.214,169.085 59.351 C 169.221 59.488,169.674 59.600,170.090 59.600 C 170.507 59.600,170.736 59.780,170.600 60.000 C 170.464 60.220,170.045 60.400,169.669 60.400 C 169.293 60.400,168.117 61.118,167.055 61.995 C 165.993 62.873,164.376 63.811,163.462 64.081 C 162.548 64.351,161.170 65.215,160.400 66.002 C 159.630 66.790,158.370 67.688,157.600 68.000 C 156.830 68.311,155.962 68.799,155.671 69.083 C 155.381 69.367,154.931 69.603,154.671 69.607 C 154.412 69.611,148.800 69.672,142.200 69.743 C 130.704 69.867,126.966 70.212,125.820 71.254 C 125.611 71.444,125.114 71.600,124.715 71.600 C 124.316 71.600,123.677 71.757,123.295 71.950 C 119.536 73.842,117.833 74.832,115.357 76.562 C 114.894 76.886,114.222 77.767,113.865 78.520 C 113.507 79.274,112.940 80.118,112.604 80.397 C 112.268 80.676,111.881 81.605,111.744 82.461 C 111.607 83.317,111.339 84.114,111.147 84.232 C 110.956 84.351,110.800 85.248,110.800 86.227 C 110.800 88.112,109.308 90.400,108.079 90.400 C 107.755 90.400,106.693 91.134,105.721 92.031 C 104.218 93.415,102.027 94.697,100.902 94.850 C 100.736 94.873,99.951 95.405,99.158 96.034 C 96.194 98.381,95.288 98.269,94.046 95.400 C 93.760 94.740,93.273 93.690,92.963 93.068 C 92.653 92.445,92.388 90.735,92.374 89.268 C 92.360 87.800,92.115 85.520,91.830 84.200 C 91.544 82.880,91.441 81.620,91.600 81.400 C 91.759 81.180,92.011 80.492,92.160 79.872 C 92.435 78.722,95.114 74.403,95.557 74.397 C 95.690 74.395,96.430 73.801,97.200 73.076 C 99.139 71.252,106.351 66.400,107.122 66.400 C 107.246 66.400,108.079 66.054,108.974 65.630 C 110.844 64.745,113.660 63.513,114.100 63.386 C 114.265 63.339,114.535 63.250,114.700 63.189 C 114.865 63.128,115.180 63.043,115.400 63.000 C 115.828 62.917,116.835 62.561,118.319 61.967 C 118.824 61.765,119.649 61.600,120.152 61.600 C 120.655 61.600,121.190 61.476,121.341 61.325 C 121.493 61.174,121.928 61.000,122.308 60.938 C 122.689 60.876,124.620 60.553,126.600 60.221 C 128.580 59.889,130.845 59.613,131.633 59.609 C 132.422 59.604,133.191 59.476,133.343 59.324 C 133.494 59.172,134.496 59.095,135.569 59.151 C 136.662 59.210,137.638 59.063,137.789 58.817 C 138.049 58.396,161.340 58.486,166.718 58.928 M179.800 62.008 C 191.576 66.061,191.125 65.670,186.703 67.985 C 185.326 68.706,183.544 69.814,182.742 70.448 C 181.941 71.081,180.989 71.600,180.627 71.600 C 180.264 71.600,179.230 71.977,178.327 72.437 C 176.509 73.365,175.833 73.314,172.200 71.978 C 170.242 71.258,168.695 71.063,163.800 70.919 C 156.310 70.699,156.148 70.648,158.408 69.227 C 159.393 68.607,160.636 67.627,161.170 67.050 C 161.703 66.472,162.348 66.000,162.602 66.000 C 163.279 66.000,166.709 64.207,167.635 63.369 C 169.075 62.065,173.350 60.139,174.400 60.321 C 174.950 60.416,177.380 61.175,179.800 62.008 M195.023 68.184 C 197.377 69.386,199.594 70.630,199.951 70.949 C 200.308 71.269,201.590 71.999,202.800 72.572 C 207.399 74.750,210.922 77.399,215.871 82.400 C 220.477 87.054,220.507 87.089,222.222 89.800 C 223.056 91.120,224.154 92.834,224.662 93.610 C 225.169 94.385,225.703 95.645,225.848 96.410 C 225.994 97.174,226.290 98.025,226.506 98.301 C 227.067 99.015,227.969 103.472,227.986 105.609 C 227.999 107.300,227.902 107.469,226.500 108.198 C 223.007 110.013,217.600 114.133,217.600 114.980 C 217.600 115.580,211.903 121.200,211.294 121.200 C 211.005 121.200,209.370 122.348,207.661 123.750 C 203.856 126.872,202.000 127.933,202.000 126.985 C 202.000 126.036,203.156 122.481,204.242 120.089 C 204.769 118.928,205.200 117.720,205.200 117.405 C 205.200 116.748,207.171 114.800,207.835 114.800 C 208.446 114.800,213.054 110.053,214.073 108.372 C 215.273 106.395,217.387 104.520,219.746 103.339 C 220.876 102.774,222.160 101.992,222.600 101.602 C 223.040 101.211,223.778 100.778,224.239 100.638 C 225.319 100.312,226.190 98.559,225.420 98.263 C 225.127 98.151,224.549 98.361,224.134 98.729 C 222.571 100.121,219.701 101.960,218.698 102.211 C 218.126 102.355,217.561 102.726,217.441 103.036 C 217.322 103.346,216.985 103.600,216.691 103.600 C 216.061 103.600,213.823 105.893,213.470 106.900 C 213.335 107.285,213.039 107.600,212.813 107.600 C 212.586 107.600,212.400 107.806,212.400 108.059 C 212.400 108.547,209.124 112.233,207.878 113.146 C 206.947 113.828,206.007 113.155,206.709 112.309 C 208.165 110.556,208.495 96.732,207.100 95.952 C 206.715 95.736,206.400 95.343,206.400 95.077 C 206.400 94.811,204.015 92.151,201.100 89.166 C 195.731 83.667,193.927 82.317,188.000 79.359 C 186.350 78.535,184.730 77.636,184.400 77.359 C 184.070 77.083,183.667 76.839,183.505 76.816 C 182.899 76.733,179.406 75.137,178.886 74.706 C 178.266 74.191,179.588 73.240,180.959 73.214 C 181.376 73.206,182.494 72.564,183.443 71.786 C 184.392 71.009,185.850 70.088,186.684 69.740 C 188.975 68.784,191.385 66.764,190.730 66.348 C 189.210 65.385,191.234 66.250,195.023 68.184 M111.191 96.700 C 111.173 108.569,107.722 110.437,99.640 102.954 C 96.685 100.218,96.165 99.047,97.700 98.580 C 98.195 98.429,98.870 98.075,99.200 97.794 C 99.530 97.512,101.060 96.621,102.600 95.812 C 104.140 95.004,105.940 93.835,106.600 93.215 C 107.260 92.595,108.189 91.971,108.664 91.829 C 109.139 91.686,109.746 91.306,110.013 90.985 C 111.030 89.759,111.200 90.585,111.191 96.700 M228.400 113.180 C 228.400 117.447,227.864 121.354,227.157 122.237 C 226.964 122.477,226.898 122.764,227.009 122.875 C 227.503 123.370,222.671 132.424,220.857 134.403 C 218.020 137.497,217.114 138.400,216.845 138.400 C 216.675 138.400,216.314 138.805,216.043 139.300 C 215.773 139.795,214.707 140.827,213.676 141.593 C 212.644 142.359,210.990 143.646,210.000 144.452 C 209.010 145.257,207.648 146.033,206.973 146.174 C 205.295 146.526,195.847 151.321,194.351 152.580 C 193.684 153.141,192.806 153.600,192.400 153.600 C 191.994 153.600,191.127 154.050,190.473 154.600 C 189.819 155.150,189.069 155.600,188.806 155.600 C 188.543 155.600,187.591 156.230,186.692 157.000 C 185.792 157.770,184.838 158.400,184.571 158.400 C 184.304 158.400,183.982 158.670,183.855 159.000 C 183.729 159.330,183.304 159.605,182.913 159.611 C 182.521 159.617,181.493 160.157,180.629 160.811 C 179.765 161.465,178.902 162.000,178.713 162.000 C 178.290 162.000,176.530 163.221,173.527 165.600 C 169.417 168.855,166.182 171.171,164.780 171.861 C 164.021 172.234,162.140 173.381,160.600 174.410 C 158.057 176.109,156.665 176.871,155.933 176.965 C 155.787 176.984,155.532 177.135,155.367 177.300 C 153.412 179.254,152.966 172.265,154.817 168.688 C 155.248 167.856,155.600 166.953,155.600 166.681 C 155.600 166.101,160.855 160.103,162.600 158.691 C 163.753 157.758,165.233 156.880,170.000 154.304 C 171.210 153.650,172.415 152.940,172.678 152.727 C 172.940 152.514,174.362 152.087,175.837 151.778 C 177.312 151.470,178.807 150.958,179.159 150.642 C 179.512 150.326,180.498 149.938,181.351 149.780 C 183.310 149.416,186.598 147.725,188.342 146.185 C 192.305 142.683,194.000 141.047,194.000 140.721 C 194.000 140.521,194.990 139.019,196.200 137.383 C 197.410 135.746,198.400 134.245,198.400 134.047 C 198.400 133.848,198.670 133.582,199.000 133.455 C 199.330 133.329,199.600 132.947,199.600 132.607 C 199.600 131.723,201.304 129.211,201.908 129.205 C 202.690 129.197,205.502 127.344,208.667 124.750 C 210.243 123.457,211.786 122.400,212.094 122.400 C 212.403 122.400,214.224 120.735,216.142 118.700 C 218.060 116.665,219.937 114.677,220.314 114.283 C 221.491 113.051,223.887 111.200,224.304 111.200 C 224.523 111.200,224.926 110.930,225.200 110.600 C 225.474 110.270,226.017 110.000,226.406 110.000 C 226.796 110.000,227.218 109.730,227.345 109.400 C 228.002 107.687,228.400 109.113,228.400 113.180 M192.781 155.822 C 192.530 156.126,191.185 157.011,189.793 157.789 C 188.402 158.567,185.958 160.193,184.362 161.402 C 182.766 162.611,181.308 163.600,181.122 163.600 C 179.350 163.600,170.242 173.344,168.866 176.713 C 168.352 177.971,167.792 179.270,167.622 179.600 C 167.452 179.929,165.526 181.101,163.341 182.204 C 161.157 183.307,158.857 184.612,158.231 185.104 C 157.604 185.597,156.929 186.000,156.730 186.000 C 156.531 186.000,155.834 186.395,155.181 186.877 C 153.456 188.152,153.149 187.551,153.284 183.164 L 153.400 179.400 155.861 178.600 C 157.215 178.160,158.669 177.485,159.093 177.100 C 159.516 176.715,160.015 176.400,160.200 176.400 C 160.385 176.400,160.821 176.145,161.169 175.833 C 161.516 175.521,163.150 174.508,164.800 173.581 C 166.450 172.654,168.729 171.109,169.864 170.148 C 170.999 169.187,172.050 168.400,172.200 168.400 C 172.350 168.400,173.401 167.617,174.536 166.659 C 175.671 165.701,177.896 164.169,179.480 163.253 C 181.064 162.337,182.470 161.411,182.604 161.194 C 182.738 160.977,183.156 160.800,183.534 160.800 C 183.912 160.800,185.464 159.810,186.982 158.600 C 188.500 157.390,189.907 156.400,190.108 156.400 C 190.309 156.400,190.928 156.042,191.484 155.605 C 192.578 154.745,193.542 154.906,192.781 155.822 M167.697 185.363 C 167.812 187.212,168.055 188.965,168.235 189.257 C 168.416 189.549,168.515 190.358,168.455 191.054 C 168.395 191.750,168.532 192.434,168.760 192.575 C 168.988 192.716,169.067 193.363,168.937 194.015 C 168.807 194.665,168.886 195.423,169.113 195.699 C 170.139 196.945,170.168 204.258,169.147 204.587 C 168.626 204.755,168.110 204.932,168.000 204.980 C 167.890 205.028,167.320 205.267,166.734 205.511 C 166.148 205.755,165.563 206.286,165.435 206.691 C 165.235 207.321,162.997 208.988,162.400 208.951 C 162.290 208.944,161.381 209.422,160.379 210.012 C 155.717 212.761,154.775 213.199,154.601 212.699 C 154.505 212.425,154.279 207.160,154.097 201.000 C 153.730 188.560,153.586 189.377,156.398 187.918 C 156.947 187.633,158.502 186.635,159.854 185.700 C 161.206 184.765,162.520 184.000,162.774 184.000 C 163.028 184.000,164.082 183.550,165.115 183.000 C 166.148 182.450,167.105 182.000,167.240 182.000 C 167.376 182.000,167.582 183.513,167.697 185.363 M170.171 209.700 C 170.573 215.649,170.580 216.061,170.482 228.000 C 170.421 235.423,170.255 239.191,170.006 238.800 C 169.691 238.305,169.482 238.288,168.812 238.700 C 168.365 238.975,167.595 239.425,167.100 239.700 C 166.605 239.975,165.866 240.470,165.458 240.800 C 165.050 241.130,164.600 241.379,164.458 241.354 C 164.092 241.289,162.447 241.939,160.740 242.822 C 159.937 243.238,158.570 243.691,157.703 243.830 L 156.125 244.082 155.865 240.741 C 155.722 238.904,155.604 236.275,155.602 234.900 C 155.601 233.525,155.465 232.400,155.300 232.401 C 155.135 232.401,155.057 230.511,155.126 228.201 C 155.213 225.300,155.398 224.000,155.726 223.999 C 155.987 223.998,157.820 223.174,159.800 222.167 C 161.780 221.161,164.233 220.080,165.252 219.767 C 166.271 219.454,167.328 218.928,167.601 218.599 C 167.874 218.269,168.324 218.000,168.600 218.000 C 168.876 218.000,169.324 217.732,169.596 217.405 C 170.207 216.669,169.092 216.070,168.295 216.706 C 168.023 216.923,166.090 217.775,164.000 218.598 C 161.910 219.422,159.930 220.315,159.600 220.582 C 159.270 220.849,158.370 221.308,157.600 221.601 C 156.830 221.894,155.983 222.299,155.718 222.501 C 154.711 223.268,154.400 222.295,154.400 218.376 C 154.400 214.969,154.493 214.400,155.051 214.400 C 155.694 214.400,159.633 212.336,160.800 211.388 C 161.130 211.120,162.072 210.685,162.894 210.422 C 163.736 210.151,164.968 209.264,165.720 208.386 C 166.947 206.952,168.315 206.088,169.460 206.025 C 169.759 206.009,170.008 207.298,170.171 209.700 M170.794 244.524 C 170.787 249.402,170.685 249.748,169.200 249.908 C 168.650 249.967,168.020 250.252,167.800 250.542 C 167.210 251.319,166.247 251.750,161.600 253.319 C 159.290 254.099,157.079 254.862,156.687 255.016 C 156.024 255.276,155.982 254.956,156.087 250.358 L 156.200 245.421 157.994 245.115 C 160.103 244.756,164.900 242.741,167.971 240.924 C 170.788 239.258,170.801 239.275,170.794 244.524 M169.822 260.400 C 169.171 270.254,168.963 271.600,168.086 271.600 C 167.743 271.600,167.125 271.906,166.712 272.279 C 166.299 272.653,165.745 273.011,165.481 273.076 C 162.057 273.909,160.000 274.572,160.000 274.843 C 160.000 275.025,159.745 275.077,159.432 274.957 C 159.120 274.837,158.394 275.047,157.820 275.424 C 156.398 276.355,156.490 276.920,156.337 266.228 L 156.200 256.656 158.515 255.964 C 159.788 255.584,161.048 255.093,161.315 254.872 C 161.582 254.652,162.520 254.341,163.400 254.182 C 164.280 254.023,165.806 253.421,166.792 252.846 C 169.821 251.078,170.191 250.923,170.295 251.381 C 170.347 251.612,170.134 255.670,169.822 260.400 M168.828 277.348 C 168.723 283.515,168.677 283.573,163.122 284.671 C 160.350 285.219,157.032 282.227,156.610 278.800 L 156.339 276.600 158.400 276.526 C 159.534 276.485,160.852 276.204,161.331 275.900 C 161.809 275.597,163.233 275.107,164.495 274.812 C 165.757 274.516,167.094 273.939,167.465 273.528 C 168.656 272.212,168.905 272.908,168.828 277.348 M158.435 293.919 C 155.274 295.496,154.039 301.752,155.992 306.292 C 158.026 311.022,167.378 312.567,171.400 308.838 C 172.060 308.226,173.270 307.326,174.089 306.837 C 176.325 305.502,178.175 302.599,177.368 301.692 C 177.029 301.311,176.039 300.069,175.167 298.931 C 174.161 297.619,172.890 296.529,171.691 295.949 C 170.651 295.447,169.190 294.623,168.444 294.118 C 166.689 292.930,160.658 292.810,158.435 293.919 M168.129 295.630 C 170.760 297.055,170.865 297.315,169.100 298.028 C 168.385 298.317,167.656 298.789,167.480 299.077 C 167.304 299.364,166.923 299.600,166.634 299.600 C 166.345 299.600,165.593 300.005,164.964 300.500 C 164.334 300.995,163.773 301.363,163.717 301.317 C 163.661 301.272,162.987 301.497,162.220 301.817 C 161.453 302.138,160.640 302.400,160.413 302.400 C 160.186 302.400,160.000 302.550,160.000 302.733 C 160.000 302.917,159.775 303.081,159.500 303.098 C 159.225 303.116,158.415 303.313,157.700 303.537 L 156.400 303.944 156.400 301.758 C 156.400 300.366,156.649 299.191,157.086 298.524 C 157.464 297.948,157.779 297.144,157.786 296.739 C 157.830 294.337,164.434 293.629,168.129 295.630 M174.152 299.767 C 175.979 301.997,176.094 301.737,172.700 303.057 C 171.105 303.677,169.190 304.593,168.444 305.092 C 167.698 305.592,166.789 306.000,166.424 306.000 C 166.059 306.000,165.570 306.190,165.338 306.422 C 164.737 307.023,159.962 308.077,158.969 307.828 C 156.807 307.285,157.073 305.148,159.376 304.570 C 160.487 304.291,163.825 302.619,169.600 299.446 C 172.804 297.686,172.425 297.660,174.152 299.767 M174.831 304.563 C 174.574 304.873,173.741 305.421,172.982 305.782 C 172.222 306.143,171.600 306.594,171.600 306.786 C 171.600 307.956,168.215 309.258,164.600 309.479 C 161.347 309.678,161.730 308.973,165.400 308.005 C 166.500 307.716,167.670 307.256,168.000 306.984 C 169.966 305.363,175.917 303.254,174.831 304.563 " stroke="none" fill="#0e0e0e" fill-rule="evenodd"></path><path id="path1" d="M0.000 200.000 L 0.000 400.000 200.000 400.000 L 400.000 400.000 400.000 200.000 L 400.000 0.000 200.000 0.000 L 0.000 0.000 0.000 200.000 M169.239 57.461 C 169.547 57.714,171.240 58.137,173.000 58.401 C 174.760 58.664,176.650 59.114,177.200 59.400 C 177.750 59.687,179.370 60.240,180.800 60.630 C 182.230 61.021,184.068 61.669,184.884 62.070 C 185.700 62.472,186.663 62.800,187.022 62.800 C 187.382 62.800,188.154 63.051,188.738 63.359 C 189.322 63.666,192.261 65.101,195.270 66.548 C 198.278 67.994,200.856 69.367,200.999 69.598 C 201.142 69.829,202.371 70.554,203.729 71.209 C 210.168 74.311,219.503 82.435,222.961 87.945 C 223.463 88.745,224.605 90.570,225.499 92.000 C 226.392 93.430,227.251 95.230,227.408 96.000 C 227.564 96.770,227.874 97.625,228.096 97.901 C 230.483 100.864,230.538 120.178,228.173 124.712 C 227.860 125.310,227.604 126.012,227.602 126.271 C 227.600 126.809,224.877 131.528,224.108 132.329 C 223.828 132.619,223.600 133.082,223.600 133.357 C 223.600 134.065,216.307 141.497,213.200 143.956 C 211.770 145.087,210.330 146.263,210.000 146.568 C 208.998 147.495,205.111 150.028,203.200 150.999 C 202.210 151.502,201.057 152.293,200.638 152.757 C 200.219 153.221,199.702 153.600,199.490 153.600 C 199.010 153.600,194.345 156.356,193.800 156.961 C 193.580 157.205,191.690 158.466,189.600 159.763 C 187.510 161.060,185.620 162.323,185.400 162.570 C 185.180 162.817,183.961 163.703,182.690 164.537 C 181.420 165.372,179.952 166.448,179.428 166.928 C 178.904 167.407,177.896 168.250,177.187 168.800 C 175.349 170.227,173.604 172.118,173.602 172.686 C 173.601 172.953,173.285 173.342,172.900 173.551 C 169.771 175.245,168.186 187.144,170.415 192.200 C 172.454 196.824,172.412 272.476,170.369 274.580 C 170.166 274.789,170.000 276.864,170.000 279.191 C 170.000 285.077,169.013 286.000,162.720 286.000 C 155.461 286.000,154.591 283.407,154.427 261.300 C 154.406 258.358,154.282 257.600,153.824 257.600 C 152.784 257.600,152.663 256.707,153.607 255.994 L 154.530 255.298 154.278 244.606 C 154.136 238.581,153.855 233.707,153.633 233.439 C 153.399 233.158,153.068 224.918,152.818 213.182 C 152.387 192.900,152.237 190.179,151.500 189.283 C 151.197 188.915,151.207 188.633,151.537 188.303 C 152.346 187.494,152.148 180.003,151.300 179.344 C 150.664 178.850,150.658 178.754,151.235 178.300 C 151.708 177.928,151.934 176.745,152.120 173.668 C 152.426 168.614,156.026 160.800,158.048 160.800 C 158.242 160.800,158.400 160.564,158.400 160.275 C 158.400 158.634,170.500 151.052,174.230 150.355 C 175.132 150.186,176.878 149.587,178.110 149.024 C 179.341 148.461,180.684 148.000,181.094 148.000 C 181.504 148.000,182.011 147.849,182.220 147.664 C 182.429 147.479,183.230 147.082,184.000 146.780 C 184.770 146.479,185.850 145.831,186.400 145.339 C 186.950 144.848,188.281 143.671,189.358 142.723 C 190.435 141.775,191.977 140.100,192.784 139.000 C 195.807 134.882,197.858 131.751,198.548 130.200 C 200.112 126.683,200.328 126.140,200.782 124.600 C 201.041 123.720,201.397 122.640,201.573 122.200 C 203.199 118.135,203.649 116.705,203.458 116.206 C 203.335 115.885,203.499 115.358,203.823 115.034 C 204.147 114.710,204.590 113.508,204.807 112.362 C 205.024 111.217,205.406 110.034,205.654 109.735 C 206.181 109.100,206.629 100.747,206.246 98.704 C 206.062 97.723,205.039 96.276,202.791 93.814 C 201.034 91.891,199.310 89.833,198.960 89.241 C 198.610 88.648,197.666 87.728,196.862 87.196 C 196.058 86.664,194.755 85.682,193.966 85.014 C 193.177 84.346,191.917 83.459,191.166 83.043 C 188.565 81.601,177.579 76.088,176.292 75.579 C 175.581 75.298,174.730 74.855,174.400 74.595 C 173.646 74.001,169.296 72.800,167.897 72.800 C 167.320 72.800,166.753 72.647,166.637 72.460 C 166.522 72.274,163.136 71.960,159.114 71.764 C 134.459 70.562,125.284 71.674,118.562 76.678 C 117.881 77.185,117.112 77.600,116.852 77.600 C 116.593 77.600,116.222 78.015,116.029 78.523 C 115.837 79.030,115.240 79.975,114.703 80.623 C 113.109 82.545,112.800 84.832,112.801 94.677 C 112.802 104.512,112.502 106.056,110.200 108.073 C 109.083 109.051,105.432 109.033,103.375 108.039 C 100.580 106.688,92.800 98.792,92.800 97.305 C 92.800 97.110,92.373 96.061,91.851 94.975 C 90.237 91.616,89.677 80.537,90.986 77.846 C 92.317 75.110,97.071 70.539,101.301 67.929 C 103.446 66.605,105.302 65.359,105.424 65.161 C 105.547 64.962,105.918 64.800,106.248 64.800 C 106.579 64.800,107.873 64.335,109.125 63.768 C 110.376 63.200,111.760 62.588,112.200 62.409 C 112.640 62.229,113.657 61.793,114.460 61.441 C 115.264 61.088,116.151 60.800,116.432 60.800 C 116.713 60.800,117.496 60.630,118.172 60.422 C 121.753 59.320,124.167 58.802,127.600 58.401 C 129.690 58.156,131.850 57.861,132.400 57.744 C 135.792 57.022,139.402 56.883,153.239 56.938 C 164.212 56.982,168.840 57.133,169.239 57.461 M172.200 61.245 C 171.540 61.658,170.729 61.997,170.397 61.998 C 170.066 61.999,168.826 62.795,167.642 63.766 C 166.458 64.737,164.917 65.639,164.219 65.770 C 163.500 65.905,162.353 66.634,161.574 67.450 C 160.818 68.242,159.480 69.205,158.600 69.588 L 157.000 70.284 163.600 70.482 C 169.572 70.661,170.445 70.781,172.769 71.740 C 175.839 73.007,176.275 73.028,178.489 72.024 C 179.430 71.598,180.785 71.014,181.500 70.727 C 182.215 70.440,182.800 70.081,182.800 69.930 C 182.800 69.779,184.240 68.889,186.000 67.951 C 189.713 65.972,189.752 65.902,187.500 65.193 C 186.565 64.899,185.260 64.391,184.600 64.065 C 183.940 63.740,182.860 63.333,182.200 63.161 C 181.540 62.990,179.819 62.418,178.376 61.890 C 174.512 60.477,173.582 60.380,172.200 61.245 M110.051 91.337 C 109.749 91.702,109.158 92.000,108.738 92.000 C 108.319 92.000,107.873 92.265,107.749 92.589 C 107.504 93.227,102.294 96.800,101.609 96.800 C 101.099 96.800,97.252 99.300,97.222 99.652 C 97.187 100.053,102.751 105.181,104.139 106.028 C 108.819 108.882,110.879 105.967,110.710 96.730 C 110.616 91.533,110.522 90.769,110.051 91.337 M225.763 99.576 C 225.309 100.556,223.207 102.087,220.600 103.337 C 218.464 104.361,216.273 106.290,213.941 109.200 C 211.626 112.089,208.466 115.078,206.978 115.784 C 205.995 116.250,205.600 116.702,205.600 117.359 C 205.600 117.866,205.150 119.127,204.600 120.162 C 204.050 121.196,203.600 122.355,203.600 122.737 C 203.600 123.118,203.240 124.137,202.800 125.000 C 201.619 127.317,202.312 127.556,204.539 125.600 C 205.291 124.940,206.017 124.400,206.153 124.400 C 206.289 124.400,206.715 124.127,207.100 123.793 C 209.326 121.863,210.756 120.800,211.124 120.800 C 211.354 120.800,213.491 118.720,215.871 116.179 C 218.525 113.345,221.134 110.986,222.614 110.079 C 223.942 109.265,225.382 108.370,225.814 108.088 C 226.246 107.807,226.931 107.467,227.336 107.332 C 228.159 107.059,228.111 105.739,227.121 101.527 C 226.495 98.860,226.254 98.514,225.763 99.576 M178.800 164.200 C 178.055 164.750,177.277 165.200,177.071 165.200 C 176.866 165.200,175.236 166.428,173.449 167.929 C 170.222 170.640,166.257 173.367,164.643 173.987 C 164.179 174.164,162.674 175.140,161.299 176.155 C 159.923 177.170,158.539 178.000,158.222 178.000 C 157.906 178.000,157.550 178.158,157.430 178.351 C 157.311 178.544,156.401 178.906,155.407 179.157 L 153.600 179.612 153.600 183.449 C 153.600 187.813,153.419 187.708,157.007 185.413 C 158.222 184.636,159.364 184.000,159.546 184.000 C 159.727 184.000,160.202 183.640,160.600 183.200 C 160.998 182.760,161.566 182.400,161.862 182.400 C 162.530 182.400,166.315 180.412,167.192 179.600 C 167.548 179.270,168.143 178.003,168.514 176.785 C 168.908 175.490,169.769 173.935,170.589 173.040 C 171.360 172.198,172.344 170.945,172.775 170.255 C 173.207 169.565,174.398 168.370,175.422 167.600 C 177.623 165.945,180.694 163.224,180.378 163.210 C 180.255 163.205,179.545 163.650,178.800 164.200 M168.317 206.773 C 167.722 207.144,166.865 207.918,166.413 208.493 C 165.961 209.068,164.378 210.122,162.895 210.837 C 161.413 211.551,159.252 212.735,158.092 213.468 C 156.933 214.201,155.718 214.800,155.392 214.800 C 154.911 214.800,154.800 215.511,154.800 218.600 C 154.800 220.690,154.891 222.400,155.002 222.400 C 155.112 222.400,157.214 221.410,159.671 220.200 C 162.129 218.990,164.360 218.000,164.629 218.000 C 164.898 218.000,165.902 217.552,166.859 217.005 C 168.786 215.903,169.827 215.743,170.141 216.500 C 170.255 216.775,170.248 214.660,170.124 211.800 C 169.871 205.963,169.824 205.834,168.317 206.773 M168.000 241.325 C 167.010 242.043,165.390 242.885,164.400 243.197 C 163.410 243.509,161.808 244.177,160.840 244.682 C 159.873 245.187,158.388 245.600,157.540 245.600 L 156.000 245.600 156.000 250.243 C 156.000 254.326,156.077 254.856,156.637 254.641 C 156.988 254.507,157.753 254.279,158.337 254.135 C 158.922 253.991,159.760 253.652,160.200 253.382 C 160.640 253.111,161.927 252.676,163.061 252.415 C 164.194 252.153,166.082 251.320,167.257 250.563 C 168.431 249.807,169.619 249.275,169.896 249.381 C 170.284 249.530,170.400 248.474,170.400 244.787 C 170.400 239.430,170.472 239.533,168.000 241.325 M167.417 273.981 C 167.028 274.411,165.695 274.977,164.455 275.239 C 163.215 275.501,161.825 275.944,161.367 276.223 C 160.908 276.503,159.681 276.859,158.640 277.015 L 156.746 277.299 157.002 278.949 C 157.432 281.717,157.569 281.924,159.844 283.225 C 162.249 284.601,164.202 284.636,166.782 283.349 C 168.230 282.627,168.355 282.170,168.494 277.099 C 168.606 272.964,168.532 272.749,167.417 273.981 M169.806 294.441 C 171.343 295.343,172.988 296.232,173.463 296.417 C 173.937 296.601,174.990 297.753,175.802 298.977 C 176.614 300.200,177.441 301.302,177.639 301.424 C 178.990 302.259,177.156 304.894,172.786 308.400 C 169.315 311.184,163.758 312.215,160.862 310.613 C 160.278 310.289,159.118 309.756,158.284 309.426 C 155.049 308.149,153.458 299.430,155.806 295.847 C 158.221 292.161,164.800 291.500,169.806 294.441 M170.504 299.529 C 162.136 303.806,159.229 305.200,158.679 305.200 C 157.556 305.200,157.529 305.972,158.615 306.978 C 159.380 307.688,159.858 307.862,160.337 307.607 C 160.702 307.412,161.900 307.051,163.000 306.804 C 165.115 306.329,167.936 305.123,169.600 303.983 C 170.150 303.606,171.627 302.975,172.883 302.581 L 175.165 301.865 174.483 300.706 C 173.147 298.437,172.825 298.342,170.504 299.529 " stroke="none" fill="#fbfbfb" fill-rule="evenodd"></path><path id="path2" d="M138.400 58.800 C 138.400 59.020,138.265 59.164,138.100 59.121 C 137.009 58.833,123.647 60.541,122.537 61.110 C 122.132 61.318,121.170 61.588,120.400 61.709 C 119.630 61.831,118.460 62.155,117.800 62.431 C 117.140 62.707,116.510 62.964,116.400 63.001 C 116.290 63.038,115.930 63.178,115.600 63.311 C 115.270 63.445,114.139 63.834,113.086 64.177 C 112.033 64.520,110.773 65.051,110.286 65.358 C 109.799 65.665,108.950 66.051,108.400 66.216 C 107.850 66.380,106.843 66.939,106.162 67.458 C 105.481 67.976,104.716 68.400,104.462 68.400 C 104.208 68.400,104.000 68.580,104.000 68.800 C 104.000 69.020,103.775 69.205,103.500 69.211 C 103.225 69.217,102.293 69.757,101.429 70.411 C 100.565 71.065,99.609 71.600,99.305 71.600 C 99.001 71.600,98.851 71.760,98.972 71.955 C 99.093 72.150,98.923 72.532,98.596 72.804 C 98.268 73.076,98.000 73.172,98.000 73.017 C 98.000 72.863,97.190 73.547,96.200 74.537 C 95.210 75.527,94.400 76.521,94.400 76.746 C 94.400 76.971,94.000 77.435,93.511 77.777 C 93.022 78.120,92.756 78.400,92.920 78.400 C 93.084 78.400,92.933 78.836,92.583 79.369 C 91.393 81.185,92.045 91.185,93.519 93.712 C 94.003 94.544,94.400 95.461,94.400 95.750 C 94.400 96.566,95.877 97.721,96.475 97.372 C 96.764 97.204,97.675 96.541,98.500 95.899 C 99.325 95.258,100.000 94.843,100.000 94.977 C 100.000 95.301,102.414 94.067,103.300 93.290 C 103.685 92.952,104.000 92.807,104.000 92.966 C 104.000 93.126,104.606 92.614,105.347 91.828 C 106.088 91.043,106.957 90.400,107.278 90.400 C 107.598 90.400,108.283 89.950,108.800 89.400 C 109.317 88.850,109.978 88.400,110.270 88.400 C 110.719 88.400,111.095 85.471,110.847 83.900 C 110.821 83.735,110.957 83.600,111.149 83.600 C 111.341 83.600,111.617 82.853,111.763 81.941 C 111.909 81.028,112.490 79.734,113.054 79.063 C 113.617 78.393,114.237 77.430,114.429 76.923 C 114.622 76.415,115.010 75.995,115.290 75.989 C 115.571 75.983,116.507 75.443,117.371 74.789 C 118.235 74.135,119.180 73.600,119.471 73.600 C 119.762 73.600,120.000 73.420,120.000 73.200 C 120.000 72.980,120.135 72.838,120.300 72.884 C 120.465 72.930,121.230 72.687,122.000 72.343 C 127.079 70.077,128.684 69.863,141.600 69.726 L 153.800 69.597 156.200 68.422 C 157.520 67.776,159.218 66.608,159.974 65.828 C 160.763 65.013,161.910 64.303,162.667 64.161 C 163.392 64.025,164.775 63.219,165.739 62.370 C 166.704 61.521,167.607 60.940,167.746 61.080 C 167.886 61.219,168.000 61.123,168.000 60.867 C 168.000 60.610,168.439 60.400,168.976 60.400 C 172.404 60.400,169.188 59.301,165.060 59.061 C 164.478 59.028,164.000 58.865,164.000 58.700 C 164.000 58.535,158.240 58.400,151.200 58.400 C 142.933 58.400,138.400 58.542,138.400 58.800 M190.339 67.583 C 189.756 68.180,188.311 69.127,187.127 69.688 C 185.944 70.248,184.734 70.998,184.439 71.353 C 184.144 71.709,183.713 72.000,183.483 72.000 C 183.252 72.000,182.779 72.238,182.431 72.529 C 182.084 72.820,180.992 73.313,180.005 73.624 C 178.970 73.951,178.504 74.248,178.905 74.325 C 179.287 74.398,179.600 74.636,179.600 74.853 C 179.600 75.070,179.780 75.136,180.000 75.000 C 180.220 74.864,180.400 74.943,180.400 75.176 C 180.400 75.409,180.600 75.600,180.844 75.600 C 181.448 75.600,187.366 78.520,187.534 78.901 C 187.608 79.068,187.833 79.103,188.034 78.979 C 188.235 78.855,188.400 78.915,188.400 79.112 C 188.400 79.310,189.111 79.706,189.979 79.993 C 190.848 80.280,191.652 80.759,191.767 81.057 C 191.881 81.356,192.240 81.600,192.564 81.600 C 193.237 81.600,199.100 86.174,199.989 87.392 C 200.313 87.836,202.148 89.869,204.066 91.909 C 208.171 96.275,208.194 96.349,207.926 104.740 C 207.796 108.801,207.577 110.564,207.076 111.569 C 206.249 113.226,206.248 113.163,207.100 113.090 C 207.766 113.033,209.511 111.600,208.915 111.600 C 208.758 111.600,209.461 110.745,210.477 109.700 C 211.493 108.655,212.746 107.166,213.262 106.392 C 213.778 105.617,214.335 104.942,214.500 104.892 C 214.665 104.841,214.755 104.722,214.700 104.627 C 214.519 104.313,218.185 102.015,218.880 102.007 C 219.254 102.003,219.720 101.714,219.916 101.364 C 220.112 101.014,220.346 100.788,220.436 100.861 C 220.629 101.016,223.738 98.740,223.933 98.300 C 224.007 98.135,224.505 98.000,225.041 98.000 C 226.306 98.000,226.027 96.599,224.245 94.000 C 223.566 93.010,223.053 92.065,223.105 91.900 C 223.157 91.735,223.020 91.600,222.800 91.600 C 222.580 91.600,222.400 91.399,222.400 91.154 C 222.400 90.488,219.591 86.776,218.080 85.445 C 217.353 84.805,216.494 83.768,216.169 83.141 C 215.845 82.513,215.337 82.000,215.041 82.000 C 214.744 82.000,213.755 81.190,212.843 80.200 C 211.930 79.210,211.081 78.400,210.956 78.400 C 210.830 78.400,209.754 77.568,208.564 76.551 C 207.374 75.535,206.397 74.860,206.394 75.051 C 206.391 75.243,206.256 75.220,206.094 75.000 C 205.705 74.471,203.824 73.349,201.600 72.319 C 200.610 71.861,199.291 71.062,198.669 70.543 C 198.047 70.024,197.282 69.600,196.969 69.600 C 196.656 69.600,196.400 69.409,196.400 69.176 C 196.400 68.943,196.220 68.864,196.000 69.000 C 195.780 69.136,195.600 69.085,195.600 68.888 C 195.600 68.690,194.880 68.290,194.000 68.000 C 193.120 67.710,192.400 67.310,192.400 67.112 C 192.400 66.915,192.235 66.855,192.034 66.979 C 191.833 67.103,191.608 67.046,191.534 66.851 C 191.460 66.656,190.923 66.986,190.339 67.583 M227.876 109.500 C 227.698 109.775,227.297 110.000,226.984 110.000 C 225.981 110.000,220.457 113.977,219.325 115.514 C 217.647 117.793,213.066 122.385,212.464 122.393 C 212.169 122.397,210.979 123.210,209.821 124.200 C 208.662 125.190,207.514 126.000,207.271 126.000 C 207.027 126.000,206.639 126.353,206.409 126.784 C 206.005 127.538,202.832 129.200,201.796 129.200 C 201.520 129.200,200.778 130.203,200.147 131.430 C 199.516 132.656,198.745 134.141,198.433 134.730 C 198.122 135.318,196.997 136.877,195.933 138.194 C 194.870 139.511,193.997 140.771,193.994 140.994 C 193.987 141.525,189.815 145.600,189.280 145.600 C 189.053 145.600,188.358 146.140,187.735 146.800 C 187.112 147.460,186.399 148.000,186.150 148.000 C 185.902 148.000,185.479 148.264,185.211 148.587 C 184.943 148.910,184.606 149.148,184.462 149.117 C 183.900 148.992,180.525 150.071,179.142 150.817 C 178.340 151.250,176.865 151.716,175.863 151.853 C 174.862 151.991,173.448 152.472,172.721 152.922 C 171.434 153.720,169.027 155.046,166.600 156.294 C 164.889 157.174,160.000 160.889,160.000 161.310 C 160.000 161.504,159.136 162.684,158.079 163.932 C 155.179 167.355,154.086 169.940,153.759 174.146 L 153.483 177.691 154.441 177.401 C 154.969 177.241,155.571 176.950,155.780 176.755 C 155.989 176.560,156.408 176.400,156.710 176.400 C 157.013 176.400,158.304 175.597,159.579 174.616 C 160.855 173.634,162.011 172.944,162.149 173.082 C 162.287 173.220,162.400 173.123,162.400 172.867 C 162.400 172.610,162.646 172.400,162.946 172.400 C 163.246 172.400,163.966 172.027,164.546 171.571 C 165.126 171.115,165.600 170.852,165.600 170.987 C 165.600 171.234,166.214 170.784,167.629 169.500 C 168.053 169.115,168.400 168.912,168.400 169.049 C 168.400 169.186,169.570 168.270,171.000 167.015 C 172.430 165.760,173.600 164.878,173.600 165.055 C 173.600 165.233,173.880 164.978,174.223 164.489 C 174.565 164.000,175.105 163.600,175.423 163.600 C 175.740 163.600,176.000 163.390,176.000 163.133 C 176.000 162.877,176.114 162.781,176.254 162.920 C 176.393 163.060,176.957 162.820,177.508 162.387 C 178.058 161.954,178.754 161.600,179.054 161.600 C 179.354 161.600,179.600 161.411,179.600 161.180 C 179.600 160.950,180.277 160.455,181.105 160.080 C 181.933 159.706,183.176 158.995,183.867 158.500 C 184.558 158.005,185.301 157.600,185.519 157.600 C 185.736 157.600,186.019 157.328,186.146 156.997 C 186.273 156.665,186.878 156.177,187.489 155.912 C 188.100 155.648,189.109 155.019,189.731 154.516 C 190.353 154.012,191.194 153.600,191.600 153.600 C 192.006 153.600,192.873 153.150,193.527 152.600 C 194.181 152.050,194.915 151.600,195.158 151.600 C 195.401 151.600,195.600 151.409,195.600 151.176 C 195.600 150.943,195.780 150.864,196.000 151.000 C 196.220 151.136,196.400 151.085,196.400 150.888 C 196.400 150.690,197.120 150.290,198.000 150.000 C 198.880 149.710,199.600 149.310,199.600 149.112 C 199.600 148.915,199.780 148.864,200.000 149.000 C 200.220 149.136,200.400 149.085,200.400 148.888 C 200.400 148.690,201.120 148.290,202.000 148.000 C 202.880 147.710,203.600 147.310,203.600 147.112 C 203.600 146.915,203.780 146.864,204.000 147.000 C 204.220 147.136,204.400 147.072,204.400 146.859 C 204.400 146.645,205.160 146.342,206.089 146.185 C 208.774 145.731,220.579 135.064,222.245 131.586 C 222.660 130.719,223.135 130.007,223.300 130.005 C 223.465 130.002,223.600 129.801,223.600 129.558 C 223.600 129.315,224.140 128.316,224.800 127.338 C 225.460 126.360,226.000 125.290,226.000 124.960 C 226.000 124.630,226.263 123.852,226.584 123.231 C 226.905 122.610,227.055 121.989,226.917 121.851 C 226.779 121.713,226.851 121.600,227.077 121.600 C 227.725 121.600,228.469 116.130,228.328 112.400 C 228.256 110.477,228.059 109.217,227.876 109.500 M165.400 182.990 C 164.520 183.532,163.487 183.981,163.103 183.988 C 162.720 183.994,162.182 184.360,161.907 184.800 C 161.632 185.240,161.119 185.600,160.766 185.600 C 160.413 185.600,159.802 185.956,159.409 186.391 C 159.015 186.825,158.537 187.085,158.347 186.967 C 158.156 186.849,158.000 186.943,158.000 187.176 C 158.000 187.409,157.827 187.600,157.616 187.600 C 157.405 187.600,156.460 188.066,155.516 188.636 L 153.800 189.672 154.139 201.136 C 154.325 207.441,154.538 212.663,154.611 212.739 C 154.790 212.926,157.364 211.480,157.534 211.098 C 157.608 210.931,157.833 210.897,158.034 211.021 C 158.235 211.145,158.400 211.057,158.400 210.824 C 158.400 210.591,158.597 210.400,158.838 210.400 C 159.079 210.400,159.844 209.996,160.538 209.502 C 161.232 209.007,161.890 208.626,162.000 208.654 C 162.574 208.799,163.985 207.933,164.848 206.907 C 165.929 205.623,168.099 204.400,169.297 204.400 C 170.055 204.400,170.038 198.304,169.277 197.017 C 169.152 196.806,169.003 196.266,168.945 195.817 C 168.887 195.368,168.638 193.650,168.391 192.000 C 168.144 190.350,167.843 187.425,167.722 185.500 C 167.474 181.557,167.565 181.656,165.400 182.990 M169.933 217.532 C 169.783 217.906,165.469 220.000,164.849 220.000 C 164.629 220.000,162.683 220.900,160.524 221.999 C 158.366 223.099,156.257 223.999,155.838 223.999 C 155.109 224.000,155.088 224.278,155.342 230.300 C 155.953 244.752,155.901 244.515,158.274 243.535 C 158.893 243.280,159.535 243.100,159.700 243.135 C 159.865 243.171,160.000 243.023,160.000 242.806 C 160.000 242.589,160.810 242.208,161.800 241.958 C 162.790 241.709,163.600 241.336,163.600 241.129 C 163.600 240.922,163.758 240.850,163.950 240.969 C 164.143 241.088,165.024 240.661,165.910 240.019 C 166.795 239.378,167.628 238.961,167.760 239.093 C 167.892 239.225,168.000 239.123,168.000 238.867 C 168.000 238.610,168.540 238.400,169.200 238.400 L 170.400 238.400 170.400 227.800 C 170.400 218.122,170.328 216.548,169.933 217.532 M169.334 251.621 C 168.858 251.801,168.313 252.226,168.124 252.565 C 167.934 252.903,166.434 253.524,164.790 253.943 C 163.145 254.363,161.260 254.996,160.600 255.351 C 159.940 255.705,159.125 255.996,158.789 255.998 C 158.453 255.999,157.802 256.264,157.342 256.586 C 156.881 256.908,156.366 257.043,156.197 256.886 C 156.027 256.729,156.003 259.750,156.143 263.600 C 156.283 267.450,156.398 271.725,156.399 273.100 C 156.400 275.055,156.531 275.600,157.000 275.600 C 157.330 275.600,157.600 275.390,157.600 275.133 C 157.600 274.877,157.713 274.780,157.851 274.917 C 157.989 275.055,158.682 274.926,159.392 274.629 C 160.101 274.333,161.428 273.964,162.341 273.810 C 163.253 273.656,164.000 273.371,164.000 273.177 C 164.000 272.984,164.236 272.916,164.525 273.027 C 164.814 273.138,165.382 272.862,165.787 272.414 C 166.192 271.966,166.999 271.600,167.579 271.600 C 169.016 271.600,169.452 269.337,169.967 259.215 C 170.414 250.442,170.476 251.189,169.334 251.621 M159.300 295.270 C 158.534 295.743,158.000 296.403,158.000 296.874 C 158.000 297.314,157.640 298.131,157.200 298.691 C 156.649 299.391,156.400 300.314,156.400 301.654 C 156.400 303.333,156.510 303.600,157.200 303.600 C 157.640 303.600,158.000 303.409,158.000 303.176 C 158.000 302.943,158.164 302.854,158.365 302.978 C 158.565 303.102,159.240 302.944,159.865 302.626 C 160.489 302.309,161.630 301.758,162.400 301.403 C 163.170 301.048,164.520 300.323,165.400 299.793 C 166.280 299.262,167.644 298.504,168.432 298.109 C 169.711 297.466,170.156 296.400,169.145 296.400 C 168.932 296.400,168.095 295.950,167.286 295.400 C 165.360 294.091,161.313 294.026,159.300 295.270 M170.294 305.981 C 169.291 306.617,168.365 307.032,168.235 306.902 C 168.106 306.773,168.000 306.837,168.000 307.046 C 168.000 307.255,167.145 307.658,166.100 307.943 C 162.330 308.969,161.901 309.383,164.466 309.518 C 167.025 309.653,168.423 309.070,171.166 306.722 C 173.279 304.913,172.723 304.441,170.294 305.981 " stroke="none" fill="#ec1c24" fill-rule="evenodd"></path><path id="path3" d="M134.505 57.487 C 135.114 57.579,136.014 57.577,136.505 57.482 C 136.997 57.387,136.500 57.311,135.400 57.314 C 134.300 57.317,133.897 57.395,134.505 57.487 M166.100 57.487 C 166.705 57.578,167.695 57.578,168.300 57.487 C 168.905 57.395,168.410 57.320,167.200 57.320 C 165.990 57.320,165.495 57.395,166.100 57.487 M114.900 61.212 C 113.561 61.751,113.811 62.024,115.200 61.540 C 115.860 61.310,116.400 61.049,116.400 60.961 C 116.400 60.724,115.913 60.805,114.900 61.212 M181.600 61.182 C 181.930 61.405,182.545 61.591,182.967 61.594 C 183.990 61.602,183.671 61.373,182.200 61.044 C 181.324 60.848,181.162 60.885,181.600 61.182 M166.800 64.083 C 164.925 65.800,165.635 65.435,167.914 63.510 C 168.637 62.899,169.087 62.408,168.914 62.417 C 168.741 62.426,167.790 63.176,166.800 64.083 M186.469 64.791 C 187.056 64.969,187.776 65.237,188.069 65.387 C 188.361 65.537,188.251 65.376,187.824 65.030 C 187.396 64.683,186.676 64.415,186.224 64.434 C 185.563 64.462,185.611 64.533,186.469 64.791 M160.981 67.700 L 159.400 69.400 161.100 67.819 C 162.681 66.348,162.984 66.000,162.681 66.000 C 162.616 66.000,161.851 66.765,160.981 67.700 M181.380 70.761 C 181.171 70.960,180.640 71.209,180.200 71.315 C 179.441 71.497,179.444 71.510,180.251 71.554 C 180.719 71.579,181.326 71.330,181.600 71.000 C 182.143 70.346,181.991 70.181,181.380 70.761 M203.600 71.400 C 204.150 71.714,204.780 71.972,205.000 71.972 C 205.220 71.972,204.950 71.714,204.400 71.400 C 203.850 71.086,203.220 70.828,203.000 70.828 C 202.780 70.828,203.050 71.086,203.600 71.400 M166.631 72.450 C 166.721 72.596,167.501 72.783,168.364 72.865 C 169.227 72.947,169.859 72.895,169.769 72.750 C 169.679 72.604,168.899 72.417,168.036 72.335 C 167.173 72.253,166.541 72.305,166.631 72.450 M208.800 74.118 C 208.800 74.220,209.647 74.997,210.681 75.845 C 211.716 76.693,212.434 77.178,212.276 76.923 C 211.940 76.379,208.800 73.845,208.800 74.118 M118.200 76.635 L 117.000 77.666 118.300 76.806 C 119.015 76.333,119.600 75.868,119.600 75.773 C 119.600 75.473,119.431 75.578,118.200 76.635 M214.200 78.800 C 215.059 79.680,215.852 80.400,215.962 80.400 C 216.072 80.400,215.459 79.680,214.600 78.800 C 213.741 77.920,212.948 77.200,212.838 77.200 C 212.728 77.200,213.341 77.920,214.200 78.800 M212.000 79.040 C 212.000 79.559,214.724 82.209,214.987 81.947 C 215.096 81.837,214.469 81.048,213.593 80.193 C 212.717 79.337,212.000 78.819,212.000 79.040 M218.000 82.525 C 218.000 82.594,218.585 83.179,219.300 83.825 L 220.600 85.000 219.425 83.700 C 218.330 82.488,218.000 82.216,218.000 82.525 M216.400 83.725 C 216.400 83.794,216.968 84.379,217.662 85.025 C 218.886 86.165,218.895 85.719,217.677 84.300 C 217.155 83.692,216.400 83.352,216.400 83.725 M193.200 84.125 C 193.200 84.194,193.785 84.779,194.500 85.425 L 195.800 86.600 194.625 85.300 C 193.530 84.088,193.200 83.816,193.200 84.125 M112.399 94.881 C 112.290 100.315,112.338 104.623,112.507 104.453 C 112.676 104.284,112.766 99.838,112.707 94.573 L 112.599 85.000 112.399 94.881 M202.400 93.400 C 203.595 94.610,204.663 95.600,204.773 95.600 C 204.883 95.600,203.995 94.610,202.800 93.400 C 201.605 92.190,200.537 91.200,200.427 91.200 C 200.317 91.200,201.205 92.190,202.400 93.400 M228.406 99.633 C 228.409 100.165,228.589 100.870,228.806 101.200 C 229.082 101.622,229.123 101.385,228.942 100.400 C 228.625 98.675,228.398 98.349,228.406 99.633 M95.099 100.600 C 95.779 101.480,97.291 103.100,98.458 104.200 C 100.177 105.819,100.054 105.628,97.815 103.200 C 94.033 99.097,93.668 98.748,95.099 100.600 M99.200 102.200 C 100.395 103.410,101.463 104.400,101.573 104.400 C 101.683 104.400,100.795 103.410,99.600 102.200 C 98.405 100.990,97.337 100.000,97.227 100.000 C 97.117 100.000,98.005 100.990,99.200 102.200 M227.044 101.800 C 227.373 103.271,227.602 103.590,227.594 102.567 C 227.591 102.145,227.405 101.530,227.182 101.200 C 226.885 100.762,226.848 100.924,227.044 101.800 M222.041 102.234 C 221.293 102.765,220.878 103.200,221.119 103.200 C 221.359 103.200,222.060 102.756,222.678 102.213 C 224.091 100.969,223.808 100.979,222.041 102.234 M216.000 106.272 C 215.113 107.210,215.097 107.278,215.853 106.876 C 216.322 106.626,216.811 106.147,216.940 105.811 C 217.254 104.994,217.168 105.036,216.000 106.272 M105.491 108.689 C 106.201 108.777,107.461 108.779,108.291 108.692 C 109.121 108.605,108.540 108.533,107.000 108.531 C 105.460 108.529,104.781 108.600,105.491 108.689 M212.008 110.992 C 211.041 111.977,210.329 112.841,210.425 112.913 C 210.521 112.984,211.390 112.178,212.357 111.121 C 214.571 108.700,214.341 108.614,212.008 110.992 M219.685 112.300 C 216.997 114.891,211.416 120.800,211.656 120.800 C 211.764 120.800,214.114 118.460,216.879 115.600 C 222.054 110.247,223.145 108.964,219.685 112.300 M217.800 136.800 C 217.168 137.460,216.788 138.000,216.956 138.000 C 217.124 138.000,217.802 137.460,218.462 136.800 C 219.122 136.140,219.501 135.600,219.306 135.600 C 219.110 135.600,218.432 136.140,217.800 136.800 M190.185 142.100 L 188.200 144.200 190.300 142.215 C 191.455 141.123,192.400 140.178,192.400 140.115 C 192.400 139.817,192.029 140.149,190.185 142.100 M190.500 156.270 C 190.005 156.615,189.600 157.062,189.600 157.263 C 189.600 157.809,191.068 156.922,191.340 156.211 C 191.621 155.480,191.633 155.479,190.500 156.270 M159.375 158.900 L 158.200 160.200 159.500 159.025 C 160.712 157.930,160.984 157.600,160.675 157.600 C 160.606 157.600,160.021 158.185,159.375 158.900 M182.179 162.367 L 181.553 163.400 182.327 162.517 C 182.752 162.031,183.195 161.728,183.310 161.844 C 183.426 161.959,183.620 161.891,183.742 161.693 C 183.865 161.495,183.704 161.333,183.385 161.333 C 183.066 161.333,182.523 161.798,182.179 162.367 M180.400 163.224 C 180.400 163.457,180.192 163.519,179.938 163.362 C 179.659 163.189,179.585 163.252,179.751 163.521 C 179.902 163.765,180.290 163.864,180.613 163.740 C 181.276 163.485,181.412 162.800,180.800 162.800 C 180.580 162.800,180.400 162.991,180.400 163.224 M177.800 164.427 C 177.140 164.850,176.805 165.197,177.056 165.198 C 177.306 165.199,177.936 164.846,178.456 164.413 C 179.645 163.423,179.359 163.429,177.800 164.427 M173.394 167.512 C 172.730 168.110,171.380 169.300,170.394 170.155 C 167.941 172.283,169.615 171.096,172.723 168.504 C 174.110 167.347,175.100 166.405,174.923 166.412 C 174.745 166.418,174.057 166.913,173.394 167.512 M159.985 176.829 L 158.600 178.058 160.100 176.981 C 161.426 176.030,161.857 175.600,161.485 175.600 C 161.422 175.600,160.747 176.153,159.985 176.829 M170.432 193.876 C 170.414 194.798,170.542 195.641,170.716 195.748 C 170.890 195.856,170.967 195.282,170.887 194.472 C 170.669 192.258,170.467 191.995,170.432 193.876 M165.826 208.700 C 164.962 209.805,164.893 209.990,165.563 209.404 C 166.365 208.704,167.423 207.200,167.114 207.200 C 167.051 207.200,166.472 207.875,165.826 208.700 M155.600 214.357 C 154.625 214.627,154.599 214.731,154.578 218.417 L 154.557 222.200 154.693 218.500 C 154.815 215.176,154.906 214.800,155.591 214.800 C 156.010 214.800,156.464 214.620,156.600 214.400 C 156.736 214.180,156.792 214.018,156.724 214.040 C 156.656 214.062,156.150 214.205,155.600 214.357 M153.130 227.932 C 153.201 230.719,153.381 233.127,153.530 233.282 C 153.678 233.437,153.710 231.246,153.600 228.413 C 153.490 225.581,153.310 223.173,153.200 223.064 C 153.090 222.954,153.058 225.145,153.130 227.932 M170.622 269.700 C 170.304 271.183,170.180 274.783,170.458 274.481 C 170.707 274.210,171.153 268.800,170.927 268.800 C 170.865 268.800,170.728 269.205,170.622 269.700 M167.393 273.611 C 167.253 273.838,166.568 274.286,165.869 274.607 C 164.914 275.047,164.848 275.133,165.600 274.954 C 166.510 274.738,168.537 273.200,167.912 273.200 C 167.767 273.200,167.533 273.385,167.393 273.611 M155.058 280.400 C 155.375 282.125,155.602 282.451,155.594 281.167 C 155.591 280.635,155.411 279.930,155.194 279.600 C 154.918 279.178,154.877 279.415,155.058 280.400 M170.900 303.212 C 169.561 303.751,169.811 304.024,171.200 303.540 C 171.860 303.310,172.400 303.049,172.400 302.961 C 172.400 302.724,171.913 302.805,170.900 303.212 M159.800 304.614 C 158.795 305.098,158.763 305.153,159.600 304.951 C 160.150 304.819,160.771 304.550,160.980 304.355 C 161.498 303.871,161.214 303.933,159.800 304.614 M171.775 308.900 L 170.600 310.200 171.900 309.025 C 173.112 307.930,173.384 307.600,173.075 307.600 C 173.006 307.600,172.421 308.185,171.775 308.900 " stroke="none" fill="#a4a4a4" fill-rule="evenodd"></path><path id="path4" d="M144.925 57.099 C 148.624 57.166,154.564 57.165,158.125 57.099 C 161.686 57.033,158.660 56.979,151.400 56.979 C 144.140 56.979,141.226 57.033,144.925 57.099 M126.900 58.676 C 127.285 58.776,127.915 58.776,128.300 58.676 C 128.685 58.575,128.370 58.493,127.600 58.493 C 126.830 58.493,126.515 58.575,126.900 58.676 M172.100 58.676 C 172.485 58.776,173.115 58.776,173.500 58.676 C 173.885 58.575,173.570 58.493,172.800 58.493 C 172.030 58.493,171.715 58.575,172.100 58.676 M124.100 59.076 C 124.485 59.176,125.115 59.176,125.500 59.076 C 125.885 58.975,125.570 58.893,124.800 58.893 C 124.030 58.893,123.715 58.975,124.100 59.076 M166.822 61.558 C 166.579 62.013,165.889 62.651,165.290 62.976 C 164.690 63.302,164.422 63.575,164.694 63.584 C 165.368 63.606,167.865 61.332,167.532 60.999 C 167.385 60.852,167.066 61.104,166.822 61.558 M164.893 64.980 C 163.598 65.695,163.391 65.980,164.347 65.730 C 164.802 65.611,165.382 65.263,165.636 64.957 C 166.175 64.307,166.107 64.309,164.893 64.980 M191.200 65.000 C 191.750 65.314,192.380 65.572,192.600 65.572 C 192.820 65.572,192.550 65.314,192.000 65.000 C 191.450 64.686,190.820 64.428,190.600 64.428 C 190.380 64.428,190.650 64.686,191.200 65.000 M188.600 66.635 L 187.400 67.666 188.700 66.806 C 189.415 66.333,190.000 65.868,190.000 65.773 C 190.000 65.473,189.831 65.578,188.600 66.635 M160.577 67.510 C 159.685 68.330,158.605 69.228,158.177 69.506 C 157.750 69.784,157.940 69.754,158.600 69.440 C 159.623 68.953,162.897 65.981,162.378 66.010 C 162.280 66.016,161.470 66.691,160.577 67.510 M102.344 69.190 L 101.400 69.981 102.497 69.490 C 103.100 69.221,103.595 68.865,103.597 68.700 C 103.602 68.241,103.371 68.331,102.344 69.190 M163.436 70.773 C 166.975 70.938,170.125 71.218,170.436 71.395 C 170.886 71.652,170.902 71.611,170.512 71.191 C 170.155 70.805,168.282 70.639,163.512 70.569 L 157.000 70.473 163.436 70.773 M132.800 71.098 C 131.370 71.177,130.068 71.373,129.908 71.534 C 129.747 71.694,131.457 71.669,133.708 71.478 C 135.958 71.288,141.760 71.199,146.600 71.280 C 151.440 71.362,154.410 71.305,153.200 71.154 C 150.958 70.874,137.514 70.837,132.800 71.098 M124.941 72.797 C 124.468 72.988,123.970 73.324,123.834 73.545 C 123.698 73.765,124.130 73.675,124.793 73.343 C 125.457 73.012,126.000 72.665,126.000 72.571 C 126.000 72.366,126.020 72.362,124.941 72.797 M169.809 72.761 C 170.024 72.971,170.740 73.271,171.400 73.428 C 172.948 73.795,172.600 73.454,170.809 72.849 C 170.044 72.590,169.594 72.550,169.809 72.761 M203.200 73.000 C 203.750 73.314,204.380 73.572,204.600 73.572 C 204.820 73.572,204.550 73.314,204.000 73.000 C 203.450 72.686,202.820 72.428,202.600 72.428 C 202.380 72.428,202.650 72.686,203.200 73.000 M175.300 73.076 C 175.685 73.176,176.315 73.176,176.700 73.076 C 177.085 72.975,176.770 72.893,176.000 72.893 C 175.230 72.893,174.915 72.975,175.300 73.076 M117.641 74.634 C 116.893 75.165,116.453 75.600,116.663 75.600 C 116.873 75.600,117.655 75.150,118.400 74.600 C 120.135 73.320,119.447 73.351,117.641 74.634 M207.600 75.584 C 209.593 77.254,211.170 78.216,209.600 76.804 C 208.830 76.111,207.840 75.365,207.400 75.145 C 206.836 74.864,206.894 74.993,207.600 75.584 M112.606 79.888 L 111.904 81.000 112.830 80.111 C 113.339 79.622,113.655 79.122,113.532 78.999 C 113.409 78.876,112.992 79.276,112.606 79.888 M113.000 82.800 C 112.848 83.491,112.807 84.141,112.909 84.242 C 113.011 84.344,113.209 83.853,113.350 83.150 C 113.683 81.483,113.360 81.160,113.000 82.800 M193.600 84.125 C 193.600 84.194,194.185 84.779,194.900 85.425 L 196.200 86.600 195.025 85.300 C 193.930 84.088,193.600 83.816,193.600 84.125 M198.981 86.738 C 199.851 87.652,200.624 88.400,200.700 88.400 C 201.036 88.400,199.347 86.484,198.423 85.816 C 197.820 85.380,198.049 85.759,198.981 86.738 M90.937 89.800 C 90.939 91.560,91.009 92.230,91.093 91.289 C 91.178 90.349,91.177 88.909,91.091 88.089 C 91.005 87.270,90.936 88.040,90.937 89.800 M108.756 89.700 C 108.286 90.595,108.288 90.596,109.142 89.838 C 110.095 88.991,110.182 88.800,109.614 88.800 C 109.402 88.800,109.016 89.205,108.756 89.700 M203.600 91.800 C 205.017 93.230,206.267 94.400,206.377 94.400 C 206.487 94.400,205.417 93.230,204.000 91.800 C 202.583 90.370,201.333 89.200,201.223 89.200 C 201.113 89.200,202.183 90.370,203.600 91.800 M110.963 96.800 C 110.963 100.430,111.023 101.915,111.098 100.100 C 111.172 98.285,111.172 95.315,111.098 93.500 C 111.023 91.685,110.963 93.170,110.963 96.800 M202.786 93.400 C 206.214 97.142,206.255 97.181,205.296 95.800 C 204.838 95.140,203.509 93.700,202.342 92.600 C 200.384 90.754,200.418 90.815,202.786 93.400 M106.575 93.300 L 105.400 94.600 106.700 93.425 C 107.912 92.330,108.184 92.000,107.875 92.000 C 107.806 92.000,107.221 92.585,106.575 93.300 M102.962 93.658 C 102.204 94.512,102.205 94.514,103.100 94.044 C 103.595 93.784,104.000 93.398,104.000 93.186 C 104.000 92.618,103.809 92.705,102.962 93.658 M224.300 93.612 C 224.575 93.970,224.800 94.463,224.800 94.708 C 224.800 94.953,224.980 95.264,225.200 95.400 C 225.943 95.859,225.606 94.851,224.700 93.903 C 224.205 93.385,224.025 93.254,224.300 93.612 M99.149 95.465 C 98.847 95.830,98.060 96.460,97.400 96.863 C 96.740 97.267,96.370 97.598,96.578 97.599 C 97.137 97.601,100.000 95.548,100.000 95.146 C 100.000 94.633,99.762 94.722,99.149 95.465 M206.548 102.800 C 206.548 105.110,206.614 106.055,206.695 104.900 C 206.776 103.745,206.776 101.855,206.695 100.700 C 206.614 99.545,206.548 100.490,206.548 102.800 M96.800 99.847 C 96.800 100.056,97.835 101.211,99.100 102.414 L 101.400 104.600 99.200 102.209 C 97.990 100.894,96.955 99.739,96.900 99.643 C 96.845 99.546,96.800 99.638,96.800 99.847 M229.094 104.000 C 229.214 105.430,229.377 106.675,229.456 106.767 C 229.735 107.089,229.516 103.388,229.198 102.400 C 229.005 101.800,228.963 102.440,229.094 104.000 M108.972 106.445 C 108.801 106.722,107.877 106.823,106.531 106.711 C 105.323 106.611,104.594 106.676,104.883 106.860 C 105.766 107.420,108.664 107.246,109.200 106.600 C 109.474 106.270,109.597 106.000,109.473 106.000 C 109.349 106.000,109.123 106.200,108.972 106.445 M210.400 110.000 C 209.484 110.880,208.893 111.600,209.086 111.600 C 209.279 111.600,210.141 110.880,211.000 110.000 C 211.859 109.120,212.451 108.400,212.314 108.400 C 212.177 108.400,211.316 109.120,210.400 110.000 M205.020 111.700 C 204.662 112.853,204.537 114.362,204.814 114.192 C 204.977 114.090,205.185 113.376,205.275 112.604 C 205.439 111.202,205.313 110.755,205.020 111.700 M214.788 117.836 C 213.365 119.286,211.840 120.625,211.400 120.811 C 210.854 121.042,210.794 121.157,211.210 121.175 C 211.546 121.189,213.161 119.850,214.800 118.200 C 216.439 116.550,217.689 115.200,217.578 115.200 C 217.468 115.200,216.212 116.386,214.788 117.836 M203.050 122.850 C 202.717 124.517,203.040 124.840,203.400 123.200 C 203.552 122.509,203.593 121.859,203.491 121.758 C 203.389 121.656,203.191 122.147,203.050 122.850 M226.465 123.817 C 225.795 125.288,225.923 125.602,226.647 124.265 C 226.986 123.640,227.188 123.054,227.096 122.963 C 227.005 122.871,226.721 123.256,226.465 123.817 M224.504 127.874 C 223.817 129.353,224.094 129.425,224.944 127.988 C 225.330 127.334,225.500 126.801,225.323 126.803 C 225.145 126.805,224.777 127.287,224.504 127.874 M222.473 131.400 C 222.222 131.950,222.083 132.400,222.163 132.400 C 222.243 132.400,222.603 131.950,222.963 131.400 C 223.324 130.850,223.463 130.400,223.273 130.400 C 223.084 130.400,222.723 130.850,222.473 131.400 M220.000 134.600 C 219.483 135.150,219.206 135.600,219.384 135.600 C 219.563 135.600,220.125 135.150,220.635 134.600 C 221.145 134.050,221.422 133.600,221.251 133.600 C 221.079 133.600,220.517 134.050,220.000 134.600 M196.975 136.268 C 196.359 137.076,196.059 137.611,196.309 137.456 C 196.821 137.140,198.553 134.800,198.275 134.800 C 198.176 134.800,197.591 135.461,196.975 136.268 M217.800 139.282 C 216.262 140.874,216.254 140.895,217.600 139.819 C 218.788 138.870,219.920 137.569,219.520 137.613 C 219.454 137.620,218.680 138.371,217.800 139.282 M215.800 138.800 C 215.402 139.240,215.244 139.600,215.449 139.600 C 215.654 139.600,216.130 139.240,216.507 138.800 C 216.884 138.360,217.042 138.000,216.858 138.000 C 216.674 138.000,216.198 138.360,215.800 138.800 M190.400 142.200 C 189.428 143.190,188.723 144.000,188.833 144.000 C 188.943 144.000,189.828 143.190,190.800 142.200 C 191.772 141.210,192.477 140.400,192.367 140.400 C 192.257 140.400,191.372 141.210,190.400 142.200 M213.493 141.200 C 213.116 141.640,212.958 142.000,213.142 142.000 C 213.326 142.000,213.802 141.640,214.200 141.200 C 214.598 140.760,214.756 140.400,214.551 140.400 C 214.346 140.400,213.870 140.760,213.493 141.200 M209.986 144.115 C 208.013 145.948,208.501 145.719,210.914 143.680 C 211.747 142.976,212.287 142.407,212.114 142.415 C 211.941 142.424,210.984 143.189,209.986 144.115 M193.641 152.634 C 192.893 153.165,192.478 153.600,192.719 153.600 C 192.959 153.600,193.660 153.156,194.278 152.613 C 195.691 151.369,195.408 151.379,193.641 152.634 M189.800 154.612 C 189.140 155.153,188.754 155.597,188.942 155.598 C 189.130 155.599,189.819 155.150,190.473 154.600 C 191.127 154.050,191.513 153.606,191.331 153.614 C 191.149 153.622,190.460 154.071,189.800 154.612 M191.981 155.220 C 191.478 155.539,191.480 155.590,192.000 155.603 C 192.410 155.613,192.283 155.877,191.600 156.436 C 190.827 157.068,190.789 157.162,191.433 156.849 C 192.516 156.322,193.332 155.329,192.900 155.062 C 192.714 154.947,192.300 155.018,191.981 155.220 M186.392 156.610 C 185.619 157.541,186.171 157.717,186.998 156.802 C 187.397 156.361,187.538 156.000,187.311 156.000 C 187.084 156.000,186.670 156.274,186.392 156.610 M187.654 158.071 C 186.524 158.990,185.606 159.935,185.613 160.171 C 185.620 160.407,185.897 160.240,186.230 159.800 C 186.562 159.360,186.872 159.057,186.917 159.126 C 187.108 159.416,188.378 158.688,188.196 158.393 C 188.086 158.215,188.492 157.700,189.098 157.248 C 189.704 156.795,190.089 156.420,189.954 156.413 C 189.818 156.406,188.783 157.152,187.654 158.071 M159.578 159.100 L 158.200 160.600 159.700 159.222 C 160.525 158.463,161.200 157.788,161.200 157.722 C 161.200 157.416,160.862 157.704,159.578 159.100 M180.229 160.609 C 179.805 160.929,179.535 161.268,179.629 161.361 C 179.723 161.455,180.225 161.187,180.744 160.766 C 181.838 159.879,181.379 159.739,180.229 160.609 M183.729 160.678 C 183.250 160.772,182.629 161.152,182.348 161.524 C 181.917 162.096,181.925 162.123,182.399 161.700 C 182.708 161.425,183.205 161.200,183.504 161.200 C 183.828 161.200,183.929 161.402,183.755 161.700 C 183.594 161.975,183.853 161.857,184.331 161.438 C 185.242 160.639,185.401 160.363,184.900 160.454 C 184.735 160.484,184.208 160.585,183.729 160.678 M156.975 162.100 L 155.800 163.400 157.100 162.225 C 157.815 161.579,158.400 160.994,158.400 160.925 C 158.400 160.616,158.070 160.888,156.975 162.100 M158.368 163.100 C 156.506 165.103,155.438 166.400,155.649 166.400 C 155.744 166.400,156.773 165.320,157.935 164.000 C 160.269 161.348,160.562 160.740,158.368 163.100 M184.200 163.035 L 183.000 164.066 184.300 163.206 C 185.015 162.733,185.600 162.268,185.600 162.173 C 185.600 161.873,185.431 161.978,184.200 163.035 M178.575 165.300 L 177.400 166.600 178.700 165.425 C 179.912 164.330,180.184 164.000,179.875 164.000 C 179.806 164.000,179.221 164.585,178.575 165.300 M172.822 165.558 C 172.579 166.013,171.889 166.651,171.290 166.976 C 170.690 167.302,170.422 167.575,170.694 167.584 C 171.368 167.606,173.865 165.332,173.532 164.999 C 173.385 164.852,173.066 165.104,172.822 165.558 M179.578 166.300 L 178.200 167.800 179.700 166.422 C 180.525 165.663,181.200 164.988,181.200 164.922 C 181.200 164.616,180.862 164.904,179.578 166.300 M152.493 170.800 C 152.493 171.570,152.575 171.885,152.676 171.500 C 152.776 171.115,152.776 170.485,152.676 170.100 C 152.575 169.715,152.493 170.030,152.493 170.800 M161.149 173.465 C 160.847 173.830,160.060 174.460,159.400 174.863 C 158.740 175.267,158.370 175.598,158.578 175.599 C 159.137 175.601,162.000 173.548,162.000 173.146 C 162.000 172.633,161.762 172.722,161.149 173.465 M154.500 178.996 L 153.200 179.561 153.284 183.481 L 153.367 187.400 153.498 183.534 L 153.628 179.668 154.814 179.255 C 155.466 179.028,156.000 178.742,156.000 178.621 C 156.000 178.338,156.032 178.330,154.500 178.996 M169.057 180.300 C 168.747 182.175,168.794 186.298,169.140 187.520 C 169.283 188.027,169.400 186.272,169.400 183.620 C 169.400 178.221,169.400 178.222,169.057 180.300 M152.561 197.600 C 152.561 201.010,152.622 202.405,152.697 200.700 C 152.772 198.995,152.772 196.205,152.697 194.500 C 152.622 192.795,152.561 194.190,152.561 197.600 M170.583 195.929 C 170.748 196.221,171.030 200.001,171.209 204.329 L 171.535 212.200 171.413 204.266 C 171.325 198.526,171.152 196.203,170.787 195.866 C 170.398 195.506,170.351 195.521,170.583 195.929 M152.973 213.400 C 152.973 218.680,153.030 220.785,153.099 218.077 C 153.168 215.369,153.168 211.049,153.099 208.477 C 153.029 205.905,152.972 208.120,152.973 213.400 M170.509 215.200 C 170.509 216.190,170.587 216.595,170.682 216.100 C 170.778 215.605,170.778 214.795,170.682 214.300 C 170.587 213.805,170.509 214.210,170.509 215.200 M170.398 244.518 L 170.596 249.400 170.712 244.834 C 170.775 242.322,170.686 240.126,170.514 239.952 C 170.341 239.779,170.289 241.834,170.398 244.518 M154.567 248.200 C 154.567 252.380,154.626 254.036,154.698 251.879 C 154.771 249.723,154.770 246.303,154.698 244.279 C 154.625 242.256,154.566 244.020,154.567 248.200 M157.600 245.200 C 156.233 245.488,156.228 245.495,157.400 245.519 C 158.060 245.533,158.960 245.389,159.400 245.200 C 160.362 244.787,159.564 244.787,157.600 245.200 M161.700 252.812 C 160.427 253.324,160.580 253.628,161.900 253.211 C 164.157 252.497,164.224 252.463,163.400 252.457 C 162.960 252.454,162.195 252.613,161.700 252.812 M171.017 261.817 C 170.857 265.470,170.813 268.547,170.920 268.653 C 171.026 268.759,171.245 265.858,171.406 262.206 C 171.567 258.553,171.611 255.477,171.503 255.370 C 171.396 255.263,171.177 258.164,171.017 261.817 M153.700 257.452 C 154.300 257.629,154.407 258.214,154.449 261.529 C 154.476 263.658,154.624 268.550,154.778 272.400 L 155.058 279.400 155.080 274.000 C 155.126 262.926,154.703 257.419,153.800 257.327 C 153.177 257.264,153.155 257.292,153.700 257.452 M168.548 278.000 C 168.548 280.310,168.614 281.255,168.695 280.100 C 168.776 278.945,168.776 277.055,168.695 275.900 C 168.614 274.745,168.548 275.690,168.548 278.000 M162.100 284.676 C 162.485 284.776,163.115 284.776,163.500 284.676 C 163.885 284.575,163.570 284.493,162.800 284.493 C 162.030 284.493,161.715 284.575,162.100 284.676 M166.400 285.200 C 165.596 285.457,165.557 285.523,166.200 285.532 C 166.640 285.538,167.360 285.389,167.800 285.200 C 168.819 284.762,167.768 284.762,166.400 285.200 M159.461 293.100 C 159.358 293.265,160.472 293.350,161.937 293.290 C 166.577 293.097,167.121 292.930,163.324 292.864 C 161.302 292.829,159.563 292.935,159.461 293.100 M173.269 296.864 C 173.857 297.379,174.821 298.340,175.411 299.000 C 176.145 299.822,176.079 299.662,175.203 298.493 C 174.498 297.554,173.535 296.593,173.061 296.358 C 172.386 296.021,172.431 296.131,173.269 296.864 M154.934 301.600 C 154.934 303.250,155.005 303.925,155.091 303.100 C 155.178 302.275,155.178 300.925,155.091 300.100 C 155.005 299.275,154.934 299.950,154.934 301.600 M167.097 300.766 C 165.453 301.819,165.225 302.191,166.675 301.454 C 167.376 301.097,168.061 300.624,168.198 300.403 C 168.519 299.884,168.423 299.915,167.097 300.766 M162.700 303.029 C 161.205 303.840,161.296 304.178,162.800 303.400 C 163.460 303.059,164.000 302.694,164.000 302.590 C 164.000 302.332,163.957 302.347,162.700 303.029 M173.897 304.766 C 172.525 305.645,172.160 306.001,172.633 305.998 C 172.835 305.997,173.540 305.553,174.200 305.012 C 175.599 303.866,175.467 303.759,173.897 304.766 M163.600 306.800 C 162.776 307.064,162.741 307.126,163.400 307.154 C 163.840 307.173,164.470 307.013,164.800 306.800 C 165.501 306.347,165.014 306.347,163.600 306.800 M171.375 308.900 L 170.200 310.200 171.500 309.025 C 172.712 307.930,172.984 307.600,172.675 307.600 C 172.606 307.600,172.021 308.185,171.375 308.900 M163.511 311.093 C 164.451 311.178,165.891 311.177,166.711 311.091 C 167.530 311.005,166.760 310.936,165.000 310.937 C 163.240 310.939,162.570 311.009,163.511 311.093 " stroke="none" fill="#7c7c7c" fill-rule="evenodd"></path></g></svg>